<svg id="Layer_4" data-name="Layer 4" xmlns="http://www.w3.org/2000/svg" viewBox="0 0 848.04 214"><defs><style>.cls-1{fill:#fff200;}</style></defs><path class="cls-1" d="M93.51,421.92,281.3,308.3s-6.75-5.63,4.5-5.63-.19,9.56-3.38,13.5-30,60-16.31,66.38,122.34-75.1,133.31-78.19S258.23,435.42,244.17,420.23s-1.69-67.5,17.72-88.59-80.16,64.12-68.34,88.59c0,0,3.18,2.63-14.63,2.82S90.1,424,93.51,421.92Z" transform="translate(-93.39 -267.03)"/><path class="cls-1" d="M460.17,370.45s-19.69,5.35-7.31,7.31S491,368.49,490.64,363s-24.28-10-47.06-6.89-78.75,18.28-73.13,25.59,86.35,13.22,88,15.75-2.25,11-49.5,12.1-32.9-3.66-32.9-3.66-24.47,8.72-12.1,9.28,113.63,5.06,121.5-18c0,0,3.38-15.47-54.56-16.59s-22.5-14.35,5.34-14.63S465.53,368.74,460.17,370.45Z" transform="translate(-93.39 -267.03)"/><path class="cls-1" d="M564.54,380.8c-8.34,7.49-9.76,10.41-29.26,9.86-6,3.47-16.14,9.94-16.14,14.67,0,1.73,1.24,2.76,5.32,2.76,5.67,0,12.06-2.37,30.5-8.2l.89,3.47c-10.47,4.25-29.62,12.69-44.69,12.69-6.92,0-11.17-2.13-11.17-5.28,0-2.6,2.3-5.6,4.61-7.89l-.36-.16-9,3.24-1.95-3c10.64-3.63,20.39-7.65,27-12.62-10.82,0-7.45-.31-16.85.32l2-1.42c9.57-6.94,11-8.2,30-8.52,5.32-3.23,9.22-6.94,19.5-6.94,2.31,0,5.68.24,5.68,1.5,0,1.42-5.15,4-6.92,5.13Z" transform="translate(-93.39 -267.03)"/><path class="cls-1" d="M583.69,408.32c-3.37,1.19-14.72,5.29-18.8,5.29-5,0-15.25-5.21-15.61-9.31-.71-9.86,45.4-19.95,66-20.19,8.16-.07,11.53,2.84,11.53,3.79s-4.61,1.73-6.21,2c3.37.63,5.15,1.5,5.15,3.23,0,2.53-15.43,8-15.43,11.75,0,1.34,2.66,1.9,5.5,1.9,7.44,0,17.55-4,25.18-6.31l1.42,2.92c-7.63,3.86-31.39,12.3-40.08,12.3-5.85,0-8.51-1.9-8.51-4.18,0-2.53,4.25-6.71,6.56-8.83l-.36-.16Zm-21.46-2.05c.18.4.89,1.82,3.55,1.58,3.54-.32,9-.08,44.15-15.85l-.35-.16C567.37,397.6,562.23,402.41,562.23,406.27Z" transform="translate(-93.39 -267.03)"/><path class="cls-1" d="M688.49,402.25l-.35-.16c-6.39,3.16-25,10.33-34.76,10.33-9.93,0-13.3-5.75-13.3-9.22,0-10.33,38.66-18.69,52.32-19.24,2.48-.08,9.39.23,9.39,2,0,1.42-3.54,2.52-5.85,3.23l-20.21,4.89c-11.18,2.68-24.3,4.89-22.7,10.65.17.63,1.24.78,2.83.78,5,.24,15.79-1.65,22.53-4.88l19-9.31c1.77-.87,3.9-2.21,6.74-2.21,3.55,0,6.74,2.68,6.74,4,0,1.19-2.48,3-3.73,4l-13.3,11,.36.15,27-8.59L722,403,684.59,415.5c-18.62,13.17-34.22,18.22-41.14,18.22-2.48,0-4.08-.87-4.08-1.9,0-5.67,27-15.61,36.71-18.77Z" transform="translate(-93.39 -267.03)"/><path class="cls-1" d="M785.5,401.94c-10.82,5.59-30.33,13-47.88,13-13,0-19-5.13-19.33-10.33-.71-10.33,25-20.9,48.05-20.82,5.68,0,12.77.63,12.77,3.78,0,3.87-8.69,9.7-42.74,14.67L736,404c-.53,3,5.32,4,11,4,12.6,0,27.49-5.76,36.89-9.07Zm-22-12.7c0-.55-.89-1-2.13-.87-8.87,1-19.15,4.81-23.94,10C753,396,763.68,390.58,763.51,389.24Z" transform="translate(-93.39 -267.03)"/><path class="cls-1" d="M941.39,306.05c-17.72,2-69.47-2.53-72.28-2.25s-8.44,5.62-8.44,5.62c-18,13.78-23.91,11.25-23.91,11.25-41.62-9.56-57.09-7.31-57.09-7.31-3.09,3.66-29.81,15.47-34,15.47S706,315.89,706,315.89l23.35-14.62c.28-5.63-55.13-15.19-55.13-15.19s-9.84,8.44-20.81,13.5-56-7.88-56-7.88,25.88-12.65,21.66-16.87-57.94-7.8-61.32-7.8-31.21,15.67-31.21,15.67-44.72.28-54.85,3.38-35.15,11.25-34.31,16.59,40.5,0,45.84,0,1.41,2.81-14.9,11.53-72.85,6.66-72.85,6.66c-2-.06,11.25-17.06,11.25-17.06L400,302.67l-15.17,17.8s9.26.48,10.38,2.45-9,15.75-9,15.75l-21.26-.31-16.89,14.49s27.47.73,29.72.73S389,339,389,339l48.66-.56s15.75-13.22,21.09-16,59.07,3.09,58.63,5.38-22.06,11.78-24.14,16,48.48,10.69,49.89,12.94-23.91,12.94-25.75,17.11c-.65,1.47,6.28,3.72,15.53,6v-.07c.94-7.87,23.91-11,29.91-9.7s.12,8.9.12,8.9l6.77.1-8,7h0c7.63,1.47,13.17,2.45,13.17,2.45S602.48,371.86,605,371.3,650.3,383.11,654,382.83,686,368.2,690.51,368.2s55.41,7.88,57.66,7.88,25-15.19,25-15.19,58.22,3.38,74.81,0,33.19-18.28,33.19-19.69-59.34-1.68-64.69-2.53,25.88-13.78,25.88-13.78c21.66,2.81,71.44,1.41,71.44,1.41C943.64,312,941.39,306.05,941.39,306.05Zm-296.65-.57c2.13-1.15,39.31,9.57,45.21,11s-16.31,12.1-20.53,14.35-39.66-10.13-43.87-11.53S644.74,305.48,644.74,305.48Zm-140.13-3.37c-11.25-.84,22.78-15.75,22.78-15.75,2.74-1.23,52.31,4.22,56.53,4.78s-12.94,9-23.34,14.06S515.86,303,504.61,302.11Zm31.78,24.47c-5.91-1.41,26.16-14.91,26.16-14.91,1.4-2.25,35.71,6.75,43,9s-12.1,11-17.44,13.78S542.3,328,536.39,326.58Zm72.56,38c-6.75,3.65-39.65-6.75-46.4-7.88s18-14.34,18-14.34c1.67-.92,37.68,6.47,44.49,9.28S615.7,360.89,609,364.55Zm83.81-5.07c-8.15,4.5-42.18-4.78-50.9-5.69s24.47-17.37,24.47-17.37,35.72,9.56,43,10.69S700.92,355,692.76,359.48Zm83.54-5.69c-6.47,3.3-36.29-3.87-47.25-5.23s16-13.58,16-13.58c4.22-4.82,46.12,5.1,51.75,5.66S782.76,350.48,776.3,353.79Z" transform="translate(-93.39 -267.03)"/><rect class="cls-1" x="184.73" y="152.93" width="586.49" height="6.88"/><path class="cls-1" d="M396.81,454.5h.94l-.43,2.22a15.07,15.07,0,0,1,2.94-1.67,7.07,7.07,0,0,1,2.55-.55,4,4,0,0,1,3.41,1.66,7.75,7.75,0,0,1,1.21,4.67,12.29,12.29,0,0,1-.76,4.38,11.86,11.86,0,0,1-2.33,3.74,10.1,10.1,0,0,1-3.21,2.38,8.68,8.68,0,0,1-3.7.85,6.06,6.06,0,0,1-1.38-.17,7.54,7.54,0,0,1-1.43-.52l-1.19,6.76,3.45.63V480h-8.72v-1.08l2.15-.45.35-.39,3.82-21.17-2.84-.36v-.92ZM395,469.6a6.64,6.64,0,0,0,1.59.74,5.09,5.09,0,0,0,1.53.24,4.51,4.51,0,0,0,2.22-.55,5.77,5.77,0,0,0,1.85-1.67,10.51,10.51,0,0,0,1.6-3.36,14.26,14.26,0,0,0,.62-4.1,5.51,5.51,0,0,0-.88-3.31,2.8,2.8,0,0,0-2.39-1.2,4.3,4.3,0,0,0-1.82.48,12.86,12.86,0,0,0-2.26,1.45Z" transform="translate(-93.39 -267.03)"/><path class="cls-1" d="M415.87,454.5h.73l-1.16,5a17.07,17.07,0,0,1,3.38-3.68,5.26,5.26,0,0,1,3.09-1.3,2.06,2.06,0,0,1,1.48.53,1.75,1.75,0,0,1,.56,1.36,2.28,2.28,0,0,1-.66,1.71,2.46,2.46,0,0,1-1.77.65h-.25l-1-2a8.57,8.57,0,0,0-3.61,2.42,9.28,9.28,0,0,0-1.7,4.28L413.51,472h-3.06l3-14.89-3-.53v-.93Z" transform="translate(-93.39 -267.03)"/><path class="cls-1" d="M434.06,454.47a5.69,5.69,0,0,1,4.53,1.92,7.7,7.7,0,0,1,1.67,5.22,11.7,11.7,0,0,1-.76,4.17,12.3,12.3,0,0,1-2.19,3.68,8.59,8.59,0,0,1-2.89,2.19,8.26,8.26,0,0,1-3.52.74,5.7,5.7,0,0,1-4.5-1.88,7.27,7.27,0,0,1-1.68-5,12.31,12.31,0,0,1,.77-4.3,11.56,11.56,0,0,1,2.14-3.68,9.07,9.07,0,0,1,3-2.26A8.09,8.09,0,0,1,434.06,454.47Zm-.46,1.42q-2.43,0-4.11,2.76a13,13,0,0,0-1.68,6.85,7.18,7.18,0,0,0,.93,4,3,3,0,0,0,2.6,1.41q2.4,0,4.11-2.75a12.68,12.68,0,0,0,1.7-6.76,7.57,7.57,0,0,0-.92-4.07A3,3,0,0,0,433.6,455.89Z" transform="translate(-93.39 -267.03)"/><path class="cls-1" d="M459.46,445.27h1l-3.89,21.8a10.05,10.05,0,0,0-.16,1.12,8,8,0,0,0-.06.9,1.58,1.58,0,0,0,.39,1.18,1.7,1.7,0,0,0,1.21.38,5.62,5.62,0,0,0,.9-.11c.38-.08.87-.2,1.46-.35v1.15a21.81,21.81,0,0,1-2.56.79,9.2,9.2,0,0,1-1.91.26,2.42,2.42,0,0,1-1.85-.63,2.9,2.9,0,0,1-.59-2c0-.2,0-.35,0-.46l0-.29a10.22,10.22,0,0,1-2.76,2.53,5.71,5.71,0,0,1-2.93.85,4.1,4.1,0,0,1-3.49-1.72,8,8,0,0,1-1.27-4.79,13.14,13.14,0,0,1,.46-3.53,11.6,11.6,0,0,1,1.32-3.08,11,11,0,0,1,3.65-3.58,8.69,8.69,0,0,1,4.54-1.33,7.17,7.17,0,0,1,1.49.15,6.91,6.91,0,0,1,1.42.46l1.28-7.27-3.21-.37v-1Zm-5.89,10.62-.42-.06a3.54,3.54,0,0,0-.45-.05c-1.82,0-3.4,1-4.76,2.92a12.1,12.1,0,0,0-2.05,7.14,5.65,5.65,0,0,0,.84,3.3,2.65,2.65,0,0,0,2.29,1.19,4.11,4.11,0,0,0,2.27-.81,10.56,10.56,0,0,0,2.38-2.29l1.64-9.27Z" transform="translate(-93.39 -267.03)"/><path class="cls-1" d="M468,454.47l.59.5-2.3,10.63c-.14.68-.24,1.23-.31,1.67a7.93,7.93,0,0,0-.09,1,2,2,0,0,0,.56,1.49,2.17,2.17,0,0,0,1.55.53,5.94,5.94,0,0,0,2.42-.61,13.82,13.82,0,0,0,2.75-1.69l2.72-13.21h3l-2.58,11.92c0,.06,0,.16-.07.31a12.55,12.55,0,0,0-.3,2.17,1.22,1.22,0,0,0,.53,1,2.21,2.21,0,0,0,1.37.41,4.27,4.27,0,0,0,.84-.1c.34-.06.74-.16,1.2-.29v1a25.36,25.36,0,0,1-2.74.86,9,9,0,0,1-1.93.26,2.1,2.1,0,0,1-1.64-.56,2.51,2.51,0,0,1-.53-1.77c0-.18,0-.32,0-.42a2.36,2.36,0,0,0,0-.25,16.23,16.23,0,0,1-3.44,2.25,7.53,7.53,0,0,1-3.13.75,3.57,3.57,0,0,1-2.6-.91,3.3,3.3,0,0,1-.94-2.51,6.88,6.88,0,0,1,.07-1c0-.36.13-.77.23-1.23l2.1-9.63-3-.53v-1Z" transform="translate(-93.39 -267.03)"/><path class="cls-1" d="M492.49,458.93l-2.1-2.76h-.17q-2.31,0-3.89,2.6a12.41,12.41,0,0,0-1.57,6.5,6.07,6.07,0,0,0,1,3.65,3.13,3.13,0,0,0,2.67,1.31,5.92,5.92,0,0,0,2.77-.8,12.65,12.65,0,0,0,2.91-2.22v1.67a13.44,13.44,0,0,1-3.38,2.61,7.47,7.47,0,0,1-3.42.9,4.82,4.82,0,0,1-3.92-1.79,7.38,7.38,0,0,1-1.47-4.82,13,13,0,0,1,.78-4.51,10.84,10.84,0,0,1,2.24-3.71,10.08,10.08,0,0,1,3.08-2.34,7.78,7.78,0,0,1,3.43-.82,3.89,3.89,0,0,1,2.42.73,2.21,2.21,0,0,1,1,1.81,1.78,1.78,0,0,1-.64,1.42A2.52,2.52,0,0,1,492.49,458.93Z" transform="translate(-93.39 -267.03)"/><path class="cls-1" d="M499.51,464a6.4,6.4,0,0,0-.1.81c0,.28,0,.58,0,.89a5.5,5.5,0,0,0,1,3.48,3.36,3.36,0,0,0,2.78,1.27,6.14,6.14,0,0,0,2.77-.76,13.86,13.86,0,0,0,3.05-2.22v1.7a12.88,12.88,0,0,1-3.46,2.45,8.51,8.51,0,0,1-3.61.82,5,5,0,0,1-4-1.74,7.47,7.47,0,0,1-1.45-4.88,12.17,12.17,0,0,1,.86-4.48,11.34,11.34,0,0,1,2.38-3.8,10.85,10.85,0,0,1,2.95-2.18,6.89,6.89,0,0,1,3.05-.81,3.8,3.8,0,0,1,2.74,1,3.5,3.5,0,0,1,1,2.63,4.59,4.59,0,0,1-2.63,4A16.42,16.42,0,0,1,499.51,464Zm.16-1.22a10.12,10.12,0,0,0,5.16-1.52,3.86,3.86,0,0,0,2-3.22,1.94,1.94,0,0,0-.55-1.4,1.84,1.84,0,0,0-1.35-.56,4,4,0,0,0-3.09,1.79A12.43,12.43,0,0,0,499.67,462.73Z" transform="translate(-93.39 -267.03)"/><path class="cls-1" d="M528.37,445.27h1l-3.9,21.8c-.07.4-.12.77-.16,1.12s0,.64,0,.9a1.58,1.58,0,0,0,.39,1.18,1.7,1.7,0,0,0,1.21.38,5.62,5.62,0,0,0,.9-.11c.38-.08.87-.2,1.46-.35v1.15a21.81,21.81,0,0,1-2.56.79,9.2,9.2,0,0,1-1.91.26,2.42,2.42,0,0,1-1.85-.63,2.9,2.9,0,0,1-.59-2c0-.2,0-.35,0-.46l0-.29a10.22,10.22,0,0,1-2.76,2.53,5.71,5.71,0,0,1-2.93.85,4.1,4.1,0,0,1-3.49-1.72,8,8,0,0,1-1.27-4.79,13.14,13.14,0,0,1,.46-3.53,11.6,11.6,0,0,1,1.32-3.08,11,11,0,0,1,3.65-3.58,8.67,8.67,0,0,1,4.54-1.33,7,7,0,0,1,2.91.61L526,447.7l-3.21-.37v-1Zm-5.89,10.62-.42-.06a3.54,3.54,0,0,0-.45-.05c-1.82,0-3.4,1-4.77,2.92a12.17,12.17,0,0,0-2,7.14,5.65,5.65,0,0,0,.84,3.3,2.65,2.65,0,0,0,2.29,1.19,4.11,4.11,0,0,0,2.27-.81,10.56,10.56,0,0,0,2.38-2.29l1.64-9.27Z" transform="translate(-93.39 -267.03)"/><path class="cls-1" d="M547.75,445.27H549c-.19.56-.35,1.12-.49,1.67s-.25,1.11-.36,1.67l-1.56,8.54a15.48,15.48,0,0,1,3-2,5.55,5.55,0,0,1,2.43-.68,4.11,4.11,0,0,1,3.42,1.72,7.16,7.16,0,0,1,1.32,4.48,13.64,13.64,0,0,1-.73,4.49,12.18,12.18,0,0,1-2.11,3.82,9.55,9.55,0,0,1-3.23,2.56,8.89,8.89,0,0,1-4,.89,10.18,10.18,0,0,1-2.86-.4,10,10,0,0,1-2.66-1.2l4.26-23-3.16-.58v-.91Zm-3.53,24.19a5.25,5.25,0,0,0,1.55,1.08,4.08,4.08,0,0,0,1.7.36,3.92,3.92,0,0,0,2.2-.7,7.46,7.46,0,0,0,2-2.1,12,12,0,0,0,1.48-3.29,13.26,13.26,0,0,0,.56-3.71,5.69,5.69,0,0,0-.83-3.25,2.54,2.54,0,0,0-2.19-1.2,4.59,4.59,0,0,0-1.81.42,15.67,15.67,0,0,0-2.56,1.51Z" transform="translate(-93.39 -267.03)"/><path class="cls-1" d="M561.66,454.4l.2,0h.3q2.12,0,3.36,6.43l.27,1.37,1.2,6.16c.77-2,1.63-4.1,2.59-6.4s2-4.78,3.13-7.42h.68l2.88.94v.77l-1.85,1.1a28,28,0,0,0-3.8,6.61q-2.21,4.83-3.34,6.87a27.86,27.86,0,0,1-4.92,6.83,7.16,7.16,0,0,1-4.75,2.3,3.41,3.41,0,0,1-2.18-.69,2.1,2.1,0,0,1-.87-1.7,1.82,1.82,0,0,1,.54-1.31,2.35,2.35,0,0,1,1.41-.68l2.15,2.13a5,5,0,0,0,3.16-1.65,19.45,19.45,0,0,0,3.2-4.75l-.1.07-2.26-10.94a14,14,0,0,0-.61-2.2,5.74,5.74,0,0,0-.85-1.58l-3.09-.27v-.8Z" transform="translate(-93.39 -267.03)"/><path class="cls-1" d="M576.91,468.08a2.08,2.08,0,0,1,1.54.64,2,2,0,0,1,.64,1.52,2,2,0,0,1-.64,1.53,2.1,2.1,0,0,1-1.54.62,2.13,2.13,0,0,1-2.15-2.15,2.08,2.08,0,0,1,.63-1.53A2.06,2.06,0,0,1,576.91,468.08Z" transform="translate(-93.39 -267.03)"/><path class="cls-1" d="M281,458a1.94,1.94,0,0,0-.55-1.4,1.84,1.84,0,0,0-1.35-.56,4,4,0,0,0-3.09,1.79,12.43,12.43,0,0,0-2.15,4.91,10.12,10.12,0,0,0,5.16-1.52A3.86,3.86,0,0,0,281,458Zm-31.94,0a1.91,1.91,0,0,0-.56-1.4,1.81,1.81,0,0,0-1.35-.56,4,4,0,0,0-3.08,1.79,12.58,12.58,0,0,0-2.16,4.91,10.12,10.12,0,0,0,5.16-1.52A3.85,3.85,0,0,0,249.08,458ZM212.89,472.1a3.24,3.24,0,0,0-.85,2.3,3.59,3.59,0,0,0,1.37,2.9,5.43,5.43,0,0,0,3.55,1.13,6.68,6.68,0,0,0,3.65-.91,2.65,2.65,0,0,0,1.43-2.25,2,2,0,0,0-.5-1.29,4.39,4.39,0,0,0-1.53-1l-4.62-2.15A4.85,4.85,0,0,0,212.89,472.1Zm6.29-16.28a3.6,3.6,0,0,0-2.93,1.81,7.35,7.35,0,0,0-1.27,4.3,3.52,3.52,0,0,0,.65,2.25,2.17,2.17,0,0,0,1.79.8,3.65,3.65,0,0,0,2.94-1.75,6.71,6.71,0,0,0,1.29-4.11,4.09,4.09,0,0,0-.64-2.45A2.15,2.15,0,0,0,219.18,455.82Zm460.75.07q-2.43,0-4.11,2.76a13,13,0,0,0-1.68,6.85,7.18,7.18,0,0,0,.93,4,3,3,0,0,0,2.61,1.41c1.6,0,3-.92,4.1-2.75a12.59,12.59,0,0,0,1.71-6.76,7.48,7.48,0,0,0-.93-4.07A3,3,0,0,0,679.93,455.89Zm124.92-.07a3.58,3.58,0,0,0-2.92,1.81,7.28,7.28,0,0,0-1.27,4.3,3.52,3.52,0,0,0,.65,2.25,2.15,2.15,0,0,0,1.78.8,3.65,3.65,0,0,0,2.95-1.75,6.77,6.77,0,0,0,1.28-4.11,4,4,0,0,0-.64-2.45A2.13,2.13,0,0,0,804.85,455.82Zm-6.28,16.28a3.25,3.25,0,0,0-.86,2.3,3.6,3.6,0,0,0,1.38,2.9,5.42,5.42,0,0,0,3.54,1.13,6.65,6.65,0,0,0,3.65-.91,2.63,2.63,0,0,0,1.43-2.25,2,2,0,0,0-.49-1.29,4.48,4.48,0,0,0-1.53-1l-4.62-2.15A4.81,4.81,0,0,0,798.57,472.1Zm-10.63-16.18a6.37,6.37,0,0,0-5.31,2.79,11.61,11.61,0,0,0-2.08,7.1,5.64,5.64,0,0,0,.79,3.28,2.74,2.74,0,0,0,2.37,1.1,4.17,4.17,0,0,0,2.1-.61,9.76,9.76,0,0,0,2.2-1.81l1.89-9.62-1.46-2.23Zm36.7,2.07a1.9,1.9,0,0,0-.55-1.4,1.81,1.81,0,0,0-1.35-.56,4,4,0,0,0-3.08,1.79,12.58,12.58,0,0,0-2.16,4.91,10.12,10.12,0,0,0,5.16-1.52A3.86,3.86,0,0,0,824.64,458ZM93.39,441.61V481H864.61V441.61ZM122.27,472h-17.6v-1.39l2.29-.21.62-.52,3.89-20.18-.41-.55-2.33-.18v-1.38h16.93l-1,5.31h-1.74v-3.09l-.41-.55h-7.81l-1.78,9.2h5.53l.65-.51.8-2.65h1.57l-1.53,8h-1.49l.14-2.63-.43-.51h-5.58l-2,10.16h9.27l.66-.59,1.23-3.68h1.68Zm19.31-13.58L140,457a5,5,0,0,0-2.45,1.89,19.89,19.89,0,0,0-2.42,4.38l.27.92q1.79,6.39,3.83,6.39a4.53,4.53,0,0,0,.76-.1c.31-.07.71-.18,1.18-.33v1.15a18.9,18.9,0,0,1-2.33.79,7.48,7.48,0,0,1-1.76.26q-2.5,0-4.17-7.25l0-.15a21.79,21.79,0,0,1-3.5,5.61,4.77,4.77,0,0,1-3.44,1.79,2.41,2.41,0,0,1-1.64-.53,1.8,1.8,0,0,1-.62-1.42,1.7,1.7,0,0,1,.46-1.21,2.5,2.5,0,0,1,1.32-.66l1.67,1.62a8.39,8.39,0,0,0,2.69-2.54,20.21,20.21,0,0,0,2.37-4.35,36.43,36.43,0,0,0-1.43-4.24,6.09,6.09,0,0,0-1.34-2.12l-3-.39v-.89l3.68-1.26.2,0,.21,0q2,0,3.57,6.29c.12.47.21.82.28,1.07a22.53,22.53,0,0,1,3.55-5.51,4.8,4.8,0,0,1,3.4-1.81,2,2,0,0,1,1.47.59,2,2,0,0,1,.61,1.43,1.73,1.73,0,0,1-.46,1.17A3.32,3.32,0,0,1,141.58,458.46Zm14-.1a2.52,2.52,0,0,1-1.67.57l-2.1-2.76h-.17q-2.31,0-3.89,2.6a12.41,12.41,0,0,0-1.57,6.5,6.07,6.07,0,0,0,1,3.65,3.13,3.13,0,0,0,2.67,1.31,5.92,5.92,0,0,0,2.77-.8,12.65,12.65,0,0,0,2.91-2.22v1.67a13.44,13.44,0,0,1-3.38,2.61,7.47,7.47,0,0,1-3.42.9,4.82,4.82,0,0,1-3.92-1.79,7.38,7.38,0,0,1-1.47-4.82,13,13,0,0,1,.78-4.51,10.84,10.84,0,0,1,2.24-3.71,10.08,10.08,0,0,1,3.08-2.34,7.78,7.78,0,0,1,3.43-.82,3.89,3.89,0,0,1,2.42.73,2.21,2.21,0,0,1,1,1.81A1.78,1.78,0,0,1,155.58,458.36Zm10.75,12.77a19.19,19.19,0,0,1-2.8.94,9.48,9.48,0,0,1-2.34.32,2.33,2.33,0,0,1-1.74-.6,2.48,2.48,0,0,1-.58-1.81,6.86,6.86,0,0,1,.06-.82c0-.32.1-.68.17-1.07l2.13-10.94-2.93-.53v-1l5.38-1.16h.94L162,468.18c0,.23-.08.42-.1.57a2.57,2.57,0,0,0,0,.36,1.3,1.3,0,0,0,.44,1.07,2,2,0,0,0,1.31.36,6,6,0,0,0,1.17-.13,13.36,13.36,0,0,0,1.52-.42Zm-.54-21.36a1.92,1.92,0,0,1-1.38.58,2,2,0,0,1-1.41-.56,1.92,1.92,0,0,1-.56-1.4,1.94,1.94,0,0,1,3.34-1.38,1.94,1.94,0,0,1,0,2.76Zm14,6.92h-5.53l-1.9,9.79c0,.09,0,.2-.05.34a8.71,8.71,0,0,0-.16,1.27,2.34,2.34,0,0,0,.57,1.7,2.24,2.24,0,0,0,1.65.58,7.4,7.4,0,0,0,1.46-.19c.58-.13,1.24-.31,2-.55v1.16a24.54,24.54,0,0,1-3.25,1.2,8.72,8.72,0,0,1-2.36.4,3,3,0,0,1-2.3-.82,3.61,3.61,0,0,1-.76-2.5,10,10,0,0,1,.08-1.15,10.17,10.17,0,0,1,.21-1.29l2-9.94-2.26.18v-1.09l2.67-1.17,1.81-3.64h1.67l-.76,4.15h5.24Zm9.13,14.44a19.19,19.19,0,0,1-2.8.94,9.48,9.48,0,0,1-2.34.32,2.33,2.33,0,0,1-1.74-.6,2.48,2.48,0,0,1-.58-1.81,6.86,6.86,0,0,1,.06-.82c0-.32.1-.68.17-1.07l2.13-10.94-2.93-.53v-1l5.38-1.16h.94l-2.61,13.68c0,.23-.08.42-.1.57s0,.27,0,.36a1.33,1.33,0,0,0,.44,1.07,2.08,2.08,0,0,0,1.32.36,5.86,5.86,0,0,0,1.16-.13,13.36,13.36,0,0,0,1.52-.42Zm-.54-21.36a2,2,0,0,1-2.78,0,1.89,1.89,0,0,1-.57-1.4,2,2,0,0,1,3.92,0A1.9,1.9,0,0,1,188.35,449.77Zm17.94,22.34a7.56,7.56,0,0,1-1.86.28,3.14,3.14,0,0,1-2-.54,2,2,0,0,1-.66-1.66,4.86,4.86,0,0,1,.08-.84c.05-.33.13-.7.22-1.12l1.56-6.8a11.94,11.94,0,0,0,.24-1.29,7.11,7.11,0,0,0,.08-1.07,2.69,2.69,0,0,0-.46-1.76,1.83,1.83,0,0,0-1.49-.55,5.18,5.18,0,0,0-2.43.79,16.13,16.13,0,0,0-2.95,2.22L194.36,472h-3.09l3-14.89-3-.53v-.93l5.39-1.19h.9l-.65,3.5a23.67,23.67,0,0,1,4-2.65,7.07,7.07,0,0,1,3.07-.85,3.12,3.12,0,0,1,2.24.79,2.85,2.85,0,0,1,.81,2.15,8.76,8.76,0,0,1-.09,1.16c-.07.44-.2,1.14-.4,2.09l-1.25,5.69a3.07,3.07,0,0,1-.07.36,14,14,0,0,0-.32,2.08,1.77,1.77,0,0,0,.49,1.33,2,2,0,0,0,1.4.47,6,6,0,0,0,.86-.08c.32-.06.7-.14,1.13-.25v1A20.92,20.92,0,0,1,206.29,472.11Zm21.5-15.17h-3.73a8.72,8.72,0,0,1,.34,1.21,6,6,0,0,1,.12,1.19,6.54,6.54,0,0,1-2,4.89,6.84,6.84,0,0,1-4.94,2h-.41l-.44,0a4.87,4.87,0,0,0-.35.94,4.57,4.57,0,0,0-.11,1v.21L222,471a5.73,5.73,0,0,1,2.14,1.55,3.18,3.18,0,0,1,.7,2c0,1.43-.86,2.7-2.59,3.79a11.3,11.3,0,0,1-6.16,1.63,8.59,8.59,0,0,1-5-1.31,4.08,4.08,0,0,1-1.86-3.52,4,4,0,0,1,1.13-2.86,10.19,10.19,0,0,1,3.7-2.2,1.79,1.79,0,0,1,0-.24,3.56,3.56,0,0,1,0-.37,4.52,4.52,0,0,1,.34-1.73,7.93,7.93,0,0,1,1.11-1.8,5.72,5.72,0,0,1-2.48-1.79,4.21,4.21,0,0,1-.87-2.62,6.75,6.75,0,0,1,2.06-5,6.88,6.88,0,0,1,5-2,6.24,6.24,0,0,1,1.65.22,9.79,9.79,0,0,1,1.73.68h5.2Zm14.87,12.19a3.35,3.35,0,0,0,2.77,1.27,6.07,6.07,0,0,0,2.77-.76,13.67,13.67,0,0,0,3.06-2.22v1.7a12.88,12.88,0,0,1-3.46,2.45,8.51,8.51,0,0,1-3.61.82,5,5,0,0,1-4-1.74,7.42,7.42,0,0,1-1.45-4.88,12.16,12.16,0,0,1,.85-4.48,11.66,11.66,0,0,1,2.38-3.8,11,11,0,0,1,3-2.18,6.89,6.89,0,0,1,3.05-.81,3.76,3.76,0,0,1,2.73,1,3.47,3.47,0,0,1,1,2.63,4.59,4.59,0,0,1-2.63,4,16.42,16.42,0,0,1-7.29,1.86,6.47,6.47,0,0,0-.09.81c0,.28,0,.58,0,.89A5.5,5.5,0,0,0,242.66,469.13Zm23.89-6.54a79.88,79.88,0,0,1-7.37,9.45h-1.75a4.31,4.31,0,0,0,.39-1.08,6.43,6.43,0,0,0,.12-1.29c0-.16,0-.33,0-.51l-.05-.8-.91-8.51a10.06,10.06,0,0,0-.41-2.1,1.88,1.88,0,0,0-.69-1l-2.79-.21v-.93l3.66-1.19h.09a2.23,2.23,0,0,1,1.92.8,7.62,7.62,0,0,1,.83,3.38l.95,10a54,54,0,0,0,3.5-4.93,23.19,23.19,0,0,0,2.07-4l-.69-4.44a3.25,3.25,0,0,1,.91-.55,2.45,2.45,0,0,1,.9-.18,1.85,1.85,0,0,1,1.43.54,2.18,2.18,0,0,1,.51,1.54C269.15,457.85,268.28,459.87,266.55,462.59Zm8.05,6.54a3.36,3.36,0,0,0,2.78,1.27,6.14,6.14,0,0,0,2.77-.76,13.86,13.86,0,0,0,3.05-2.22v1.7a12.88,12.88,0,0,1-3.46,2.45,8.51,8.51,0,0,1-3.61.82,5,5,0,0,1-4-1.74,7.42,7.42,0,0,1-1.45-4.88,12.37,12.37,0,0,1,.85-4.48,11.52,11.52,0,0,1,2.39-3.8,10.85,10.85,0,0,1,2.95-2.18,6.89,6.89,0,0,1,3.05-.81,3.8,3.8,0,0,1,2.74,1,3.5,3.5,0,0,1,1,2.63,4.59,4.59,0,0,1-2.63,4,16.42,16.42,0,0,1-7.28,1.86,6.4,6.4,0,0,0-.1.81c0,.28,0,.58,0,.89A5.5,5.5,0,0,0,274.6,469.13Zm26.89,3a7.56,7.56,0,0,1-1.86.28,3.11,3.11,0,0,1-2-.54,2,2,0,0,1-.67-1.66,6.11,6.11,0,0,1,.08-.84c.05-.33.13-.7.22-1.12l1.57-6.8c.1-.46.18-.89.23-1.29a7.11,7.11,0,0,0,.08-1.07,2.69,2.69,0,0,0-.46-1.76,1.81,1.81,0,0,0-1.49-.55,5.14,5.14,0,0,0-2.42.79,15.83,15.83,0,0,0-3,2.22L289.56,472h-3.09l3-14.89-3-.53v-.93l5.38-1.19h.91l-.66,3.5a23.67,23.67,0,0,1,4-2.65,7.07,7.07,0,0,1,3.07-.85,3.12,3.12,0,0,1,2.24.79,2.86,2.86,0,0,1,.82,2.15,8.94,8.94,0,0,1-.1,1.16c-.07.44-.2,1.14-.4,2.09l-1.24,5.69c0,.08,0,.2-.08.36a14,14,0,0,0-.32,2.08,1.77,1.77,0,0,0,.49,1.33,2,2,0,0,0,1.4.47,5.84,5.84,0,0,0,.86-.08c.32-.06.7-.14,1.13-.25v1A20.92,20.92,0,0,1,301.49,472.11Zm16.26-15.42h-5.52l-1.9,9.79c0,.09,0,.2-.05.34a8.71,8.71,0,0,0-.16,1.27,2.39,2.39,0,0,0,.56,1.7,2.25,2.25,0,0,0,1.66.58,7.4,7.4,0,0,0,1.46-.19c.58-.13,1.24-.31,2-.55v1.16a25.06,25.06,0,0,1-3.25,1.2,8.78,8.78,0,0,1-2.36.4,3,3,0,0,1-2.3-.82,3.56,3.56,0,0,1-.76-2.5,9.8,9.8,0,0,1,.07-1.15,12.43,12.43,0,0,1,.22-1.29l2-9.94-2.26.18v-1.09l2.67-1.17,1.81-3.64h1.67l-.77,4.15h5.24ZM625,478.17H334.17V444.42H625Zm43.65-28.43L664.42,472h-2.11l-9.56-20.24-3.53,18.12.41.52,2.32.21V472h-7.67v-1.39l2.33-.21.56-.52,3.9-20.18-.36-.55-2.36-.18v-1.38h6.25v.9L663.31,467l3.34-17.23-.36-.55L664,449v-1.38h7.65V449l-2.34.18Zm17.14,16a12.48,12.48,0,0,1-2.18,3.68,8.63,8.63,0,0,1-2.9,2.19,8.26,8.26,0,0,1-3.52.74,5.71,5.71,0,0,1-4.5-1.88,7.27,7.27,0,0,1-1.68-5,12.55,12.55,0,0,1,.77-4.3,11.75,11.75,0,0,1,2.14-3.68,9.17,9.17,0,0,1,3-2.26,8.13,8.13,0,0,1,3.47-.76,5.69,5.69,0,0,1,4.53,1.92,7.65,7.65,0,0,1,1.67,5.22A11.7,11.7,0,0,1,685.83,465.78Zm16.53-7.68a2.43,2.43,0,0,1-1.77.65h-.25l-1-2a8.55,8.55,0,0,0-3.62,2.42,9.39,9.39,0,0,0-1.7,4.28L692.58,472h-3.05l3-14.89-3-.53v-.93l5.38-1.19h.73l-1.15,5a17.05,17.05,0,0,1,3.37-3.68,5.31,5.31,0,0,1,3.09-1.3,2.1,2.1,0,0,1,1.49.53,1.79,1.79,0,0,1,.56,1.36A2.29,2.29,0,0,1,702.36,458.1Zm12.85-1.41h-5.52l-1.9,9.79c0,.09,0,.2-.06.34a9.82,9.82,0,0,0-.15,1.27,2.34,2.34,0,0,0,.56,1.7,2.24,2.24,0,0,0,1.65.58,7.4,7.4,0,0,0,1.47-.19c.57-.13,1.24-.31,2-.55v1.16A25.06,25.06,0,0,1,710,472a8.78,8.78,0,0,1-2.36.4,3,3,0,0,1-2.3-.82,3.56,3.56,0,0,1-.76-2.5,9.8,9.8,0,0,1,.07-1.15q.08-.63.21-1.29l2-9.94-2.26.18v-1.09l2.66-1.17,1.82-3.64h1.67l-.77,4.15h5.24Zm18.27,14.52a19.63,19.63,0,0,1-2.51.88,7.51,7.51,0,0,1-1.86.3,3.12,3.12,0,0,1-2-.53,2.1,2.1,0,0,1-.64-1.7,7.51,7.51,0,0,1,.06-.89,9.26,9.26,0,0,1,.19-1l1.56-6.8c.12-.49.21-.94.28-1.35a7.17,7.17,0,0,0,.09-1,2.74,2.74,0,0,0-.48-1.79,1.83,1.83,0,0,0-1.49-.57,5.23,5.23,0,0,0-2.39.79,16.6,16.6,0,0,0-3,2.23L719,472h-3.09l5-24.38-3.42-.3v-.9l5.72-1.19h1.11c-.21.8-.43,1.73-.67,2.77s-.5,2.26-.78,3.66l-1.19,6.23a21.9,21.9,0,0,1,3.89-2.62,7.12,7.12,0,0,1,3.09-.84,3.11,3.11,0,0,1,2.23.78,2.84,2.84,0,0,1,.83,2.15,8.45,8.45,0,0,1-.11,1.22c-.07.46-.21,1.15-.41,2.07L730,466.38c-.14.62-.24,1.11-.29,1.47a5.79,5.79,0,0,0-.09.94,1.83,1.83,0,0,0,.49,1.35,1.85,1.85,0,0,0,1.38.48,6.34,6.34,0,0,0,.89-.08c.34-.06.72-.14,1.14-.25Zm29.2-17.4h-1.6l.14-3.61-.44-.65a8.31,8.31,0,0,0-1.55-.52,7.29,7.29,0,0,0-1.61-.18,6.11,6.11,0,0,0-4.11,1.4,4.38,4.38,0,0,0-1.63,3.47q0,2.53,4.42,4.57l.38.17a13,13,0,0,1,4.31,2.83,5,5,0,0,1,1.14,3.33,6.83,6.83,0,0,1-2.77,5.57,11,11,0,0,1-7.09,2.2,14.42,14.42,0,0,1-3.51-.42,13.53,13.53,0,0,1-3.19-1.27l1.21-5.77h1.9l-.37,4.18.37.48a11.53,11.53,0,0,0,2.06.79,7.94,7.94,0,0,0,2,.25,6.78,6.78,0,0,0,4.53-1.44,4.8,4.8,0,0,0,1.69-3.85c0-1.42-1.15-2.7-3.44-3.86l-.55-.27a18.48,18.48,0,0,1-5-3.25,4.51,4.51,0,0,1-1.16-3.06,7,7,0,0,1,2.51-5.51,9.56,9.56,0,0,1,6.48-2.17,17.92,17.92,0,0,1,3.12.27,15.89,15.89,0,0,1,3,.8ZM777,456.69h-5.53l-1.9,9.79c0,.09,0,.2-.05.34a8.71,8.71,0,0,0-.16,1.27,2.34,2.34,0,0,0,.57,1.7,2.24,2.24,0,0,0,1.65.58,7.4,7.4,0,0,0,1.46-.19c.58-.13,1.24-.31,2-.55v1.16a24.54,24.54,0,0,1-3.25,1.2,8.72,8.72,0,0,1-2.36.4,3,3,0,0,1-2.3-.82,3.61,3.61,0,0,1-.76-2.5c0-.34,0-.73.07-1.15a12.43,12.43,0,0,1,.22-1.29l2-9.94-2.26.18v-1.09l2.67-1.17,1.81-3.64h1.67l-.76,4.15H777Zm17.64,14.44a23.22,23.22,0,0,1-2.64.95,7,7,0,0,1-1.82.31,2,2,0,0,1-1.68-.67,3.32,3.32,0,0,1-.54-2.08v-.31a12.25,12.25,0,0,1-2.81,2.32,5.41,5.41,0,0,1-2.63.74,4.43,4.43,0,0,1-3.67-1.69,7.38,7.38,0,0,1-1.34-4.68,13.12,13.12,0,0,1,.47-3.49,13.39,13.39,0,0,1,1.42-3.26,9.76,9.76,0,0,1,3.57-3.54,9.59,9.59,0,0,1,4.83-1.23,6.63,6.63,0,0,1,1.63.21,8,8,0,0,1,1.65.59l.73-.8h1.89a12.32,12.32,0,0,0-.64,1.92q-.35,1.32-.75,3.3l-1.3,6.44c-.12.57-.21,1.08-.27,1.51a6.83,6.83,0,0,0-.1,1.06,1.59,1.59,0,0,0,.47,1.26,2.22,2.22,0,0,0,1.5.41,3.78,3.78,0,0,0,.58-.06c.24,0,.72-.14,1.45-.31Zm18.81-14.19h-3.73a10.37,10.37,0,0,1,.34,1.21,6,6,0,0,1,.12,1.19,6.54,6.54,0,0,1-2,4.89,6.84,6.84,0,0,1-4.94,2h-.41l-.44,0a4.29,4.29,0,0,0-.35.94,4,4,0,0,0-.12,1v.21l5.78,2.63a5.73,5.73,0,0,1,2.14,1.55,3.18,3.18,0,0,1,.7,2c0,1.43-.86,2.7-2.59,3.79a11.34,11.34,0,0,1-6.17,1.63,8.59,8.59,0,0,1-5-1.31,4.1,4.1,0,0,1-1.85-3.52,4,4,0,0,1,1.13-2.86,10.1,10.1,0,0,1,3.7-2.2c0-.08,0-.15,0-.24s0-.2,0-.37a4.53,4.53,0,0,1,.35-1.73,7.59,7.59,0,0,1,1.11-1.8,5.69,5.69,0,0,1-2.49-1.79,4.21,4.21,0,0,1-.87-2.62,6.79,6.79,0,0,1,2.06-5,6.92,6.92,0,0,1,5-2,6.22,6.22,0,0,1,1.64.22,9.5,9.5,0,0,1,1.73.68h5.21Zm4.76,12.19A3.35,3.35,0,0,0,821,470.4a6.1,6.1,0,0,0,2.77-.76,13.67,13.67,0,0,0,3.06-2.22v1.7a12.92,12.92,0,0,1-3.47,2.45,8.44,8.44,0,0,1-3.6.82,5,5,0,0,1-4-1.74,7.42,7.42,0,0,1-1.45-4.88,12.16,12.16,0,0,1,.85-4.48,11.5,11.5,0,0,1,2.38-3.8,11,11,0,0,1,3-2.18,6.86,6.86,0,0,1,3-.81,3.76,3.76,0,0,1,2.73,1,3.47,3.47,0,0,1,1,2.63,4.58,4.58,0,0,1-2.62,4,16.5,16.5,0,0,1-7.29,1.86,6.4,6.4,0,0,0-.1.81c0,.28,0,.58,0,.89A5.5,5.5,0,0,0,818.23,469.13Z" transform="translate(-93.39 -267.03)"/></svg>